<svg width="24" height="23" viewBox="0 0 24 23" fill="none" xmlns="http://www.w3.org/2000/svg">
<path d="M12 22.02L10.26 20.46C8.24 18.64 6.57 17.07 5.25 15.75C3.93 14.43 2.88 13.2448 2.1 12.1944C1.32 11.144 0.7752 10.1792 0.4656 9.3C0.156 8.4208 0.0008 7.5208 0 6.6C0 4.72 0.63 3.15 1.89 1.89C3.15 0.63 4.72 0 6.6 0C7.64 0 8.63 0.22 9.57 0.66C10.51 1.1 11.32 1.72 12 2.52C12.68 1.72 13.49 1.1 14.43 0.66C15.37 0.22 16.36 0 17.4 0C19.28 0 20.85 0.63 22.11 1.89C23.37 3.15 24 4.72 24 6.6C24 7.52 23.8452 8.42 23.5356 9.3C23.226 10.18 22.6808 11.1448 21.9 12.1944C21.1192 13.244 20.0692 14.4292 18.75 15.75C17.4308 17.0708 15.7608 18.6408 13.74 20.46L12 22.02ZM12 18.78C13.92 17.06 15.5 15.5852 16.74 14.3556C17.98 13.126 18.96 12.056 19.68 11.1456C20.4 10.2352 20.9 9.4248 21.18 8.7144C21.46 8.004 21.6 7.2992 21.6 6.6C21.6 5.4 21.2 4.4 20.4 3.6C19.6 2.8 18.6 2.4 17.4 2.4C16.46 2.4 15.59 2.6648 14.79 3.1944C13.99 3.724 13.44 4.3992 13.14 5.22H10.86C10.56 4.4 10.01 3.7252 9.21 3.1956C8.41 2.666 7.54 2.4008 6.6 2.4C5.4 2.4 4.4 2.8 3.6 3.6C2.8 4.4 2.4 5.4 2.4 6.6C2.4 7.3 2.54 8.0052 2.82 8.7156C3.1 9.426 3.6 10.236 4.32 11.1456C5.04 12.0552 6.02 13.1252 7.26 14.3556C8.5 15.586 10.08 17.0608 12 18.78Z" fill="black"/>
</svg>
