<svg width="28" height="28" viewBox="0 0 28 28" fill="none" xmlns="http://www.w3.org/2000/svg">
<path d="M20 4.66667V2M8 4.66667V2M2.33333 8.66667H25.6667M2 11.392C2 8.572 2 7.16133 2.58133 6.084C3.10699 5.12307 3.92266 4.35267 4.912 3.88267C6.05333 3.33333 7.54667 3.33333 10.5333 3.33333H17.4667C20.4533 3.33333 21.9467 3.33333 23.088 3.88267C24.092 4.36533 24.9067 5.136 25.4187 6.08267C26 7.16267 26 8.57333 26 11.3933V17.9427C26 20.7627 26 22.1733 25.4187 23.2507C24.893 24.2116 24.0773 24.982 23.088 25.452C21.9467 26 20.4533 26 17.4667 26H10.5333C7.54667 26 6.05333 26 4.912 25.4507C3.92286 24.981 3.10722 24.2111 2.58133 23.2507C2 22.1707 2 20.76 2 17.94V11.392Z" stroke="black" stroke-width="2.25" stroke-linecap="round" stroke-linejoin="round"/>
</svg>
